<?xml version="1.0" standalone="no"?>
<!DOCTYPE svg PUBLIC "-//W3C//DTD SVG 20010904//EN"
 "http://www.w3.org/TR/2001/REC-SVG-20010904/DTD/svg10.dtd">
<svg version="1.0" xmlns="http://www.w3.org/2000/svg"
 width="120.000000pt" height="120.000000pt" viewBox="0 0 120.000000 120.000000"
 preserveAspectRatio="xMidYMid meet">
<metadata>
Created by potrace 1.14, written by Peter Selinger 2001-2017
</metadata>
<g transform="translate(0.000000,120.000000) scale(0.100000,-0.100000)"
fill="#000000" stroke="none">
<path d="M467 1073 c-9 -2 -14 -9 -11 -15 4 -7 2 -8 -5 -4 -22 14 -63 17 -55
5 5 -8 3 -9 -6 -4 -17 11 -71 11 -133 1 -41 -6 -46 -10 -36 -22 10 -12 9 -13
-5 -8 -9 3 -16 10 -16 16 0 5 -5 6 -10 3 -6 -4 -7 -11 -4 -17 4 -6 2 -8 -3 -5
-12 8 -36 -17 -26 -26 3 -4 1 -7 -6 -7 -8 0 -11 -6 -7 -16 3 -9 2 -12 -4 -9
-10 6 -10 0 4 -63 3 -13 1 -20 -5 -17 -5 4 -9 3 -10 -2 0 -4 -2 -44 -3 -88 -5
-109 -17 -204 -27 -211 -5 -3 -17 0 -28 6 -11 6 -22 6 -25 1 -8 -12 -10 -541
-3 -548 7 -6 1107 -6 1114 1 2 2 5 205 5 450 0 245 3 446 7 446 5 0 8 12 7 28
l-1 27 -195 3 c-109 1 -199 7 -204 12 -7 7 -6 10 2 10 13 0 52 39 52 53 0 5
-10 6 -22 2 -39 -11 -71 -16 -125 -17 -29 -1 -53 -5 -53 -10 0 -5 5 -6 10 -3
6 3 10 1 10 -4 0 -14 -17 -14 -25 -1 -3 5 -16 8 -28 6 -12 -3 -26 -5 -31 -5
-5 -1 -2 -8 5 -18 13 -15 12 -15 -8 -5 -19 11 -25 8 -48 -23 -15 -19 -24 -39
-20 -45 3 -5 2 -10 -4 -10 -6 0 -8 -12 -4 -30 3 -18 1 -30 -5 -30 -6 0 -10
-25 -9 -62 1 -75 -10 -225 -18 -239 -4 -5 -18 -3 -35 6 -35 18 -51 19 -49 3 5
-40 -2 -148 -10 -148 -11 0 -19 33 -26 115 -3 33 -8 83 -12 110 -3 28 -6 85
-7 128 -2 52 -7 81 -15 87 -7 4 -10 16 -7 26 6 20 56 82 56 70 0 -4 9 -2 21 4
11 6 29 13 39 15 29 6 70 38 65 52 -2 8 2 10 12 6 10 -4 14 -2 10 4 -4 6 -1
14 5 16 16 7 -10 7 -35 0z m-37 -33 c0 -5 -4 -10 -10 -10 -5 0 -10 5 -10 10 0
6 5 10 10 10 6 0 10 -4 10 -10z m280 -2 c0 -4 -4 -8 -9 -8 -6 0 -12 4 -15 8
-3 5 1 9 9 9 8 0 15 -4 15 -9z m64 4 c3 -5 -1 -9 -9 -9 -8 0 -15 4 -15 9 0 4
4 8 9 8 6 0 12 -4 15 -8z m-407 -37 c0 -22 -14 -18 -20 4 -3 13 0 18 7 15 7
-3 13 -11 13 -19z m-124 0 c-3 -9 -8 -14 -10 -11 -3 3 -2 9 2 15 9 16 15 13 8
-4z m382 5 c-3 -5 -14 -10 -23 -9 -14 0 -13 2 3 9 27 11 27 11 20 0z m-435
-10 c0 -5 -4 -10 -10 -10 -5 0 -10 5 -10 10 0 6 5 10 10 10 6 0 10 -4 10 -10z
m100 -5 c0 -1 -9 -5 -19 -8 -13 -3 -18 -1 -14 9 4 10 33 10 33 -1z m389 1 c9
-11 9 -16 0 -22 -8 -5 -9 -3 -4 6 6 10 4 12 -8 7 -11 -4 -14 -2 -10 9 6 17 8
17 22 0z m55 -27 c-2 -4 3 -12 11 -19 13 -10 15 -54 15 -271 0 -143 -2 -259
-4 -259 -14 0 -60 32 -62 43 -3 21 -16 129 -19 157 -6 58 -18 156 -21 174 -2
10 1 26 6 35 5 11 4 26 -4 42 -16 32 -1 72 36 93 15 10 28 23 28 29 0 7 4 7 9
-3 6 -8 8 -17 5 -21z m-404 10 c0 -15 -18 -19 -23 -6 -3 8 1 14 9 14 8 0 14
-4 14 -8z m314 -5 c3 -8 2 -12 -4 -9 -6 3 -10 10 -10 16 0 14 7 11 14 -7z
m-420 -6 c-5 -8 -2 -9 9 -5 9 3 19 1 23 -6 4 -7 4 -9 -1 -5 -4 4 -17 3 -28 -3
-14 -8 -18 -8 -13 0 4 6 1 11 -6 11 -9 0 -9 3 2 10 20 13 23 12 14 -2z m69
-10 c-6 -7 -9 -21 -8 -31 2 -9 0 -15 -5 -12 -13 8 1 55 17 55 3 0 1 -6 -4 -12z
m237 2 c0 -5 -4 -10 -10 -10 -5 0 -10 5 -10 10 0 6 5 10 10 10 6 0 10 -4 10
-10z m100 -15 c0 -2 -7 -1 -17 2 -12 5 -14 3 -8 -8 5 -8 4 -11 0 -6 -5 4 -10
14 -11 22 -2 12 2 12 17 5 10 -6 19 -13 19 -15z m-463 0 c0 -8 -4 -15 -9 -15
-10 0 -11 14 -1 23 9 10 10 9 10 -8z m474 -22 c-12 -20 -14 -14 -5 12 4 9 9
14 11 11 3 -2 0 -13 -6 -23z m-460 -20 c-12 -20 -14 -14 -5 12 4 9 9 14 11 11
3 -2 0 -13 -6 -23z m337 15 c15 -15 15 -28 1 -28 -5 0 -8 4 -4 9 3 6 -3 14
-12 20 -10 6 -13 11 -7 11 5 0 15 -5 22 -12z m106 -27 c-3 -3 -15 6 -27 18
l-22 24 27 -19 c14 -10 24 -21 22 -23z m-40 8 c3 -3 -4 -5 -14 -6 -11 -1 -22
2 -24 6 -5 8 30 8 38 0z"/>
</g>
</svg>
